<svg xmlns="http://www.w3.org/2000/svg" viewBox="0 0 1252.89 300" width="1252.89" height="300"><g transform="scale(2.11) translate(-8,6)"><defs><mask id="h"><rect x="-20" y="-20" width="160" height="200" fill="#fff"></rect><circle cx="55" cy="8" r="5.68" fill="#000"></circle><circle cx="22" cy="68" r="5.68" fill="#000"></circle><circle cx="40" cy="122" r="5.68" fill="#000"></circle><circle cx="80" cy="57" r="5.68" fill="#000"></circle></mask></defs><polygon points="55,8 22,68 47,68 40,122 80,57 55,57" fill="none" stroke="#E8634A" stroke-width="6" stroke-linejoin="round" stroke-linecap="round" mask="url(#h)"></polygon><circle cx="55" cy="8" r="4" fill="#E8634A"></circle><circle cx="22" cy="68" r="4" fill="#E8634A"></circle><circle cx="40" cy="122" r="4" fill="#E8634A"></circle><circle cx="80" cy="57" r="4" fill="#E8634A"></circle></g><path d="M35.30-45.34L35.30 0L13.38 0L13.38-116.78L57.72-116.78Q74.79-116.78 83.82-107.08Q92.86-97.37 92.86-80.64L92.86-80.64Q92.86-67.76 86.92-58.98Q80.98-50.19 69.94-47.85L69.94-47.85L94.86 0L70.77 0L48.52-45.34L35.30-45.34ZM35.30-62.41L53.20-62.41Q62.07-62.41 65.92-66.00Q69.77-69.60 69.77-77.46L69.77-77.46L69.77-83.82Q69.77-91.69 65.92-95.28Q62.07-98.88 53.20-98.88L53.20-98.88L35.30-98.88L35.30-62.41ZM196.42 0L122.64 0L122.64-116.78L196.42-116.78L196.42-98.71L144.56-98.71L144.56-68.26L194.58-68.26L194.58-50.19L144.56-50.19L144.56-18.07L196.42-18.07L196.42 0ZM283.09 0L252.30 0L220.35-116.78L244.44-116.78L259.00-57.72L267.53-20.91L268.70-20.91L277.40-57.72L292.12-116.78L315.04-116.78L283.09 0ZM375.11 2.01L375.11 2.01Q360.05 2.01 349.43-3.18Q338.80-8.37 332.11-16.90L332.11-16.90L345.33-30.62Q351.85-23.09 359.47-19.49Q367.08-15.89 375.78-15.89L375.78-15.89Q385.82-15.89 391.17-20.41Q396.52-24.93 396.52-33.46L396.52-33.46Q396.52-40.49 392.51-44.09Q388.49-47.68 378.96-49.19L378.96-49.19L366.58-51.20Q350.35-54.04 343.49-62.99Q336.63-71.94 336.63-84.16L336.63-84.16Q336.63-100.89 347.50-109.84Q358.38-118.79 377.62-118.79L377.62-118.79Q391.34-118.79 401.29-114.44Q411.25-110.09 417.27-102.56L417.27-102.56L404.39-88.84Q399.70-94.36 393.18-97.63Q386.65-100.89 377.79-100.89L377.79-100.89Q358.71-100.89 358.71-85.16L358.71-85.16Q358.71-78.47 362.73-74.95Q366.74-71.44 376.45-69.77L376.45-69.77L388.66-67.59Q403.89-64.75 411.25-56.38Q418.61-48.02 418.61-34.97L418.61-34.97Q418.61-26.77 415.77-19.99Q412.92-13.22 407.40-8.28Q401.88-3.35 393.76-0.67Q385.65 2.01 375.11 2.01ZM502.26 0L502.26-50.19L468.13-50.19L468.13 0L446.22 0L446.22-116.78L468.13-116.78L468.13-68.26L502.26-68.26L502.26-116.78L524.18-116.78L524.18 0L502.26 0ZM593.95 2.01L593.95 2.01Q582.57 2.01 574.21-2.09Q565.84-6.19 560.40-13.89Q554.97-21.58 552.37-32.79Q549.78-44.00 549.78-58.39L549.78-58.39Q549.78-72.61 552.37-83.91Q554.97-95.20 560.40-102.90Q565.84-110.59 574.21-114.69Q582.57-118.79 593.95-118.79L593.95-118.79Q616.70-118.79 627.41-102.90Q638.12-87.00 638.12-58.39L638.12-58.39Q638.12-29.78 627.41-13.89Q616.70 2.01 593.95 2.01ZM593.95-15.89L593.95-15.89Q599.81-15.89 603.82-18.15Q607.84-20.41 610.26-24.59Q612.69-28.78 613.78-34.88Q614.86-40.99 614.86-48.52L614.86-48.52L614.86-68.43Q614.86-83.49 610.26-92.19Q605.66-100.89 593.95-100.89L593.95-100.89Q582.24-100.89 577.64-92.19Q573.04-83.49 573.04-68.43L573.04-68.43L573.04-48.35Q573.04-33.29 577.64-24.59Q582.24-15.89 593.95-15.89ZM687.81 0L665.89 0L665.89-116.78L710.23-116.78Q727.30-116.78 736.33-107.08Q745.37-97.37 745.37-80.64L745.37-80.64Q745.37-63.91 736.33-54.21Q727.30-44.50 710.23-44.50L710.23-44.50L687.81-44.50L687.81 0ZM687.81-98.88L687.81-62.41L705.71-62.41Q714.58-62.41 718.43-66.00Q722.28-69.60 722.28-77.46L722.28-77.46L722.28-83.82Q722.28-91.69 718.43-95.28Q714.58-98.88 705.71-98.88L705.71-98.88L687.81-98.88ZM796.56 0L774.65 0L774.65-116.78L818.98-116.78Q836.05-116.78 845.08-107.08Q854.12-97.37 854.12-80.64L854.12-80.64Q854.12-63.91 845.08-54.21Q836.05-44.50 818.98-44.50L818.98-44.50L796.56-44.50L796.56 0ZM796.56-98.88L796.56-62.41L814.47-62.41Q823.33-62.41 827.18-66.00Q831.03-69.60 831.03-77.46L831.03-77.46L831.03-83.82Q831.03-91.69 827.18-95.28Q823.33-98.88 814.47-98.88L814.47-98.88L796.56-98.88ZM957.68 0L883.90 0L883.90-116.78L957.68-116.78L957.68-98.71L905.82-98.71L905.82-68.26L955.84-68.26L955.84-50.19L905.82-50.19L905.82-18.07L957.68-18.07L957.68 0Z" fill="#111111" transform="translate(295.21,208.39)"></path></svg>