<svg xmlns="http://www.w3.org/2000/svg" viewBox="0 0 543.52 454.13" width="543.52" height="454.13"><g transform="translate(180.91,0) scale(2.11) translate(-8,6)"><defs><mask id="h"><rect x="-20" y="-20" width="160" height="200" fill="#fff"></rect><circle cx="55" cy="8" r="5.68" fill="#000"></circle><circle cx="22" cy="68" r="5.68" fill="#000"></circle><circle cx="40" cy="122" r="5.68" fill="#000"></circle><circle cx="80" cy="57" r="5.68" fill="#000"></circle></mask></defs><polygon points="55,8 22,68 47,68 40,122 80,57 55,57" fill="none" stroke="#FFFFFF" stroke-width="6" stroke-linejoin="round" stroke-linecap="round" mask="url(#h)"></polygon><circle cx="55" cy="8" r="4" fill="#FFFFFF"></circle><circle cx="22" cy="68" r="4" fill="#FFFFFF"></circle><circle cx="40" cy="122" r="4" fill="#FFFFFF"></circle><circle cx="80" cy="57" r="4" fill="#FFFFFF"></circle></g><path d="M20.32-26.10L20.32 0L7.70 0L7.70-67.22L33.22-67.22Q43.05-67.22 48.25-61.63Q53.45-56.05 53.45-46.42L53.45-46.42Q53.45-39.00 50.03-33.95Q46.61-28.89 40.25-27.54L40.25-27.54L54.60 0L40.73 0L27.93-26.10L20.32-26.10ZM20.32-35.92L30.62-35.92Q35.73-35.92 37.94-37.99Q40.16-40.06 40.16-44.59L40.16-44.59L40.16-48.25Q40.16-52.77 37.94-54.84Q35.73-56.91 30.62-56.91L30.62-56.91L20.32-56.91L20.32-35.92ZM113.06 0L70.59 0L70.59-67.22L113.06-67.22L113.06-56.82L83.20-56.82L83.20-39.29L112.00-39.29L112.00-28.89L83.20-28.89L83.20-10.40L113.06-10.40L113.06 0ZM162.94 0L145.22 0L126.83-67.22L140.69-67.22L149.07-33.22L153.98-12.04L154.66-12.04L159.67-33.22L168.14-67.22L181.33-67.22L162.94 0ZM215.90 1.16L215.90 1.16Q207.24 1.16 201.12-1.83Q195.01-4.81 191.16-9.73L191.16-9.73L198.76-17.62Q202.52-13.29 206.90-11.22Q211.28-9.15 216.29-9.15L216.29-9.15Q222.07-9.15 225.15-11.75Q228.23-14.35 228.23-19.26L228.23-19.26Q228.23-23.30 225.92-25.38Q223.61-27.45 218.12-28.31L218.12-28.31L210.99-29.47Q201.65-31.10 197.70-36.26Q193.76-41.41 193.76-48.44L193.76-48.44Q193.76-58.07 200.02-63.22Q206.27-68.37 217.35-68.37L217.35-68.37Q225.25-68.37 230.98-65.87Q236.71-63.37 240.17-59.03L240.17-59.03L232.76-51.14Q230.06-54.31 226.31-56.19Q222.55-58.07 217.45-58.07L217.45-58.07Q206.47-58.07 206.47-49.02L206.47-49.02Q206.47-45.16 208.78-43.14Q211.09-41.12 216.68-40.16L216.68-40.16L223.70-38.91Q232.47-37.27 236.71-32.45Q240.94-27.64 240.94-20.13L240.94-20.13Q240.94-15.41 239.31-11.51Q237.67-7.61 234.49-4.77Q231.31-1.93 226.64-0.39Q221.97 1.16 215.90 1.16ZM289.09 0L289.09-28.89L269.45-28.89L269.45 0L256.83 0L256.83-67.22L269.45-67.22L269.45-39.29L289.09-39.29L289.09-67.22L301.71-67.22L301.71 0L289.09 0ZM341.86 1.16L341.86 1.16Q335.32 1.16 330.50-1.20Q325.69-3.56 322.56-7.99Q319.43-12.42 317.93-18.87Q316.44-25.33 316.44-33.61L316.44-33.61Q316.44-41.79 317.93-48.29Q319.43-54.79 322.56-59.22Q325.69-63.65 330.50-66.01Q335.32-68.37 341.86-68.37L341.86-68.37Q354.96-68.37 361.12-59.22Q367.29-50.08 367.29-33.61L367.29-33.61Q367.29-17.14 361.12-7.99Q354.96 1.16 341.86 1.16ZM341.86-9.15L341.86-9.15Q345.24-9.15 347.55-10.45Q349.86-11.75 351.25-14.16Q352.65-16.56 353.28-20.08Q353.90-23.59 353.90-27.93L353.90-27.93L353.90-39.39Q353.90-48.05 351.25-53.06Q348.61-58.07 341.86-58.07L341.86-58.07Q335.12-58.07 332.48-53.06Q329.83-48.05 329.83-39.39L329.83-39.39L329.83-27.83Q329.83-19.16 332.48-14.16Q335.12-9.15 341.86-9.15ZM395.89 0L383.27 0L383.27-67.22L408.79-67.22Q418.62-67.22 423.82-61.63Q429.02-56.05 429.02-46.42L429.02-46.42Q429.02-36.79 423.82-31.20Q418.62-25.62 408.79-25.62L408.79-25.62L395.89-25.62L395.89 0ZM395.89-56.91L395.89-35.92L406.19-35.92Q411.30-35.92 413.51-37.99Q415.73-40.06 415.73-44.59L415.73-44.59L415.73-48.25Q415.73-52.77 413.51-54.84Q411.30-56.91 406.19-56.91L406.19-56.91L395.89-56.91ZM458.48 0L445.87 0L445.87-67.22L471.39-67.22Q481.21-67.22 486.41-61.63Q491.61-56.05 491.61-46.42L491.61-46.42Q491.61-36.79 486.41-31.20Q481.21-25.62 471.39-25.62L471.39-25.62L458.48-25.62L458.48 0ZM458.48-56.91L458.48-35.92L468.79-35.92Q473.89-35.92 476.11-37.99Q478.32-40.06 478.32-44.59L478.32-44.59L478.32-48.25Q478.32-52.77 476.11-54.84Q473.89-56.91 468.79-56.91L468.79-56.91L458.48-56.91ZM551.22 0L508.75 0L508.75-67.22L551.22-67.22L551.22-56.82L521.37-56.82L521.37-39.29L550.16-39.29L550.16-28.89L521.37-28.89L521.37-10.40L551.22-10.40L551.22 0Z" fill="#FFFFFF" transform="translate(-7.7,452.97)"></path></svg>